<?xml version="1.0" encoding="utf-8"?>
<!-- Generator: Adobe Illustrator 18.1.0, SVG Export Plug-In . SVG Version: 6.00 Build 0)  -->
<!DOCTYPE svg PUBLIC "-//W3C//DTD SVG 1.1//EN" "http://www.w3.org/Graphics/SVG/1.1/DTD/svg11.dtd">
<svg version="1.1" id="Layer_1" xmlns="http://www.w3.org/2000/svg" xmlns:xlink="http://www.w3.org/1999/xlink" x="0px" y="0px"
	 viewBox="-225.5 373.7 46.6 46.2" enable-background="new -225.5 373.7 46.6 46.2" xml:space="preserve">
<g id="XMLID_13_">
	<g>
		<g id="XMLID_10_">
			<g>
				<path d="M-185.1,419.7l-10.9-10.9c-3,2-6.6,3.1-10.4,3.1c-10.5,0-19.1-8.5-19.1-19.1c0-10.5,8.5-19.1,19.1-19.1
					c10.5,0,19.1,8.5,19.1,19.1c0,3.7-1,7.1-2.8,10l11,11c0.6,0.6,0.1,2-1.1,3.1l-1.6,1.6C-183.1,419.8-184.5,420.3-185.1,419.7z
					 M-193.8,392.8c0-7-5.7-12.7-12.7-12.7c-7,0-12.7,5.7-12.7,12.7c0,7,5.7,12.7,12.7,12.7C-199.4,405.5-193.8,399.8-193.8,392.8z"
					/>
			</g>
		</g>
	</g>
</g>
</svg>
